<svg width="398" height="172" viewBox="0 0 398 172" fill="none" xmlns="http://www.w3.org/2000/svg">
<path d="M63.714 0.465526C59.4435 0.138397 54.8337 -0.0392467 50.1546 0.00734741C48.265 0.0257909 46.3641 0.0811225 44.47 0.178194C43.4668 0.393692 42.4817 0.657727 41.5216 0.980974C34.112 3.47279 32.7173 7.98951 29.1016 13.4575C23.9209 21.2902 17.064 25.3604 6.64695 25.9914C4.426 26.1263 2.20846 26.1059 0 26.1214V52.7558C6.16123 50.7115 13.0579 49.5942 18.545 45.8609C22.6521 43.0652 24.528 38.2699 26.951 34.2123C27.8112 32.7728 28.7395 31.4254 29.8608 30.2936C34.4865 25.6283 43.1456 25.9273 50.0036 24.347C51.0398 24.1101 52.0328 23.8286 52.9657 23.4821C64.4143 19.2197 70.8365 8.58553 81.8289 3.02141C75.9763 1.7721 69.9048 0.939234 63.714 0.465526ZM113.345 15.8552C108.986 18.114 105.001 20.8019 101.673 24.148C94.6178 31.2429 93.3081 38.3087 84.5617 42.6226C83.513 43.1409 82.3577 43.6185 81.0719 44.0524C80.5385 44.232 79.9859 44.4038 79.4071 44.5679C72.9565 46.3977 67.3672 47.2111 62.3227 48.4828C61.5657 48.674 60.8201 48.8749 60.087 49.0914C56.0718 50.2766 52.3903 51.9191 48.8654 54.8361C47.0723 56.3193 45.32 58.1326 43.5848 60.3827C37.7084 68.0028 35.1867 70.4548 26.6695 72.669C26.2473 72.7787 25.8104 72.8884 25.3576 72.9971C12.0955 76.1956 6.65603 86.6142 0 95.637V118.316C9.05969 114.814 22.4909 113.071 28.4955 106.446C29.4091 105.437 30.1513 104.316 30.679 103.059C30.78 102.818 30.8708 102.58 30.9525 102.344C32.1294 98.9423 31.4314 96.0146 33.136 92.5259C33.397 91.991 33.7148 91.4426 34.1052 90.8776C34.4582 90.367 34.827 89.8817 35.2106 89.4206C41.634 81.717 52.3403 80.6424 61.4965 75.9733C63.268 75.0705 64.5595 74.0523 65.5934 72.9389C68.5895 69.7151 69.4259 65.709 73.5137 61.4563C73.5182 61.4515 73.5228 61.4466 73.5273 61.4418C75.3862 59.513 77.5606 57.9452 79.861 56.5241C80.0233 56.4232 80.1867 56.3242 80.3513 56.2251C82.032 55.2088 83.7718 54.2614 85.4991 53.3004C88.1558 51.823 90.7796 50.3125 93.1107 48.4721C100.173 42.8944 105.455 35.3112 113.697 30.7352C117.247 28.7647 121.074 27.3125 125.051 26.137C121.581 22.2095 117.651 18.7984 113.345 15.8552ZM142.75 74.9599C141.498 64.9441 140.037 54.9186 136.501 45.4425C128.536 48.3993 121.115 51.8919 116.166 58.5384C114.141 61.2573 112.47 64.4529 110.837 67.7679C106.221 77.1333 101.899 87.4442 90.7286 90.5951C89.882 90.8339 89.0694 91.0329 88.2886 91.2009C87.3103 91.4115 86.3809 91.5726 85.4979 91.6998C85.4162 91.7115 85.3345 91.7231 85.2539 91.7347C76.2623 92.9773 71.9805 90.7922 67.9914 101.721C63.4984 114.029 59.7488 121.72 49.5837 131.634C49.0435 132.161 48.4977 132.676 47.9473 133.182C46.3006 134.697 44.6119 136.123 42.8914 137.498C41.1687 138.877 39.4141 140.203 37.6335 141.519C34.6318 143.736 31.5574 145.922 28.4479 148.263C19.185 155.235 16.1027 161.394 11.8764 171.043C11.7403 171.353 11.6029 171.673 11.4622 172H65.2904C70.1522 168.211 75.3261 164.596 76.2896 158.656C76.7378 155.892 76.7685 153.19 77.1214 150.525C77.4086 148.352 77.9079 146.205 79.0235 144.074C79.4797 143.202 79.979 142.354 80.5204 141.53C80.5374 141.504 80.5544 141.478 80.5715 141.453C80.6543 141.327 80.7371 141.203 80.8223 141.08C81.7858 139.663 82.8707 138.312 84.0544 137.02C85.0451 135.939 86.1051 134.898 87.2241 133.893C87.6803 133.482 88.1467 133.077 88.6222 132.677C89.4768 131.958 90.3597 131.257 91.2676 130.572C92.2584 129.822 93.2775 129.092 94.3193 128.376C97.7546 126.016 101.434 123.825 105.137 121.699C106.392 120.977 107.651 120.264 108.902 119.554C111.395 118.142 113.863 116.745 116.242 115.33C118.666 113.887 120.009 111.523 119.941 109.119C119.94 109.027 119.936 108.935 119.928 108.843C119.865 107.984 119.622 107.126 119.183 106.307C118.65 105.312 118.332 104.284 118.211 103.227C117.221 94.6906 128.97 84.2913 142.75 74.9599ZM151.288 121.295C145.219 128.598 139.732 136.262 135.723 144.821C131.6 153.623 127.622 163.398 122.266 172H135.113C138.342 161.796 153.34 150.772 159.157 145.071C161.179 143.09 162.953 140.996 164.542 138.819C158.107 135.599 154.022 128.863 151.288 121.295ZM298.22 67.0738C298.03 67.0942 297.841 67.1156 297.652 67.1379C297.428 67.1631 297.204 67.1893 296.979 67.2165C296.807 67.2369 296.635 67.2582 296.463 67.2796C296.295 67.3 296.128 67.3214 295.96 67.3427C295.732 67.3718 295.504 67.4019 295.276 67.432C295.181 67.4446 295.086 67.4563 294.992 67.4699C294.898 67.4825 294.804 67.4951 294.708 67.5077C294.688 67.5106 294.666 67.5135 294.646 67.5165C294.362 67.5553 294.077 67.5951 293.794 67.6368C293.556 67.6708 293.319 67.7057 293.082 67.7417C292.982 67.7562 292.882 67.7708 292.784 67.7863C292.535 67.8232 292.287 67.862 292.039 67.9009C292.014 67.9047 291.99 67.9086 291.967 67.9125C291.726 67.9504 291.485 67.9892 291.246 68.028C291.163 68.0416 291.081 68.0552 290.998 68.0688C290.917 68.0824 290.834 68.096 290.752 68.1096C290.55 68.1426 290.348 68.1766 290.146 68.2115C290.144 68.2125 290.141 68.2125 290.138 68.2125C289.904 68.2532 289.672 68.293 289.438 68.3348C289.337 68.3522 289.236 68.3697 289.135 68.3882C288.863 68.4367 288.59 68.4862 288.318 68.5367C288.134 68.5697 287.951 68.6046 287.769 68.6396C287.632 68.6638 287.496 68.6901 287.36 68.7163C287.185 68.7493 287.012 68.7832 286.838 68.8172C286.667 68.8502 286.495 68.8842 286.324 68.9182C286.318 68.9191 286.313 68.9201 286.307 68.9211C286.067 68.9687 285.828 69.0162 285.59 69.0657C285.316 69.121 285.044 69.1773 284.77 69.2346C284.715 69.2463 284.659 69.2579 284.603 69.2696C284.328 69.3278 284.052 69.3861 283.775 69.4462C283.763 69.4492 283.75 69.4511 283.738 69.454C283.464 69.5132 283.189 69.5734 282.916 69.6346C282.667 69.6899 282.42 69.7452 282.173 69.8015C281.834 69.8782 281.497 69.9559 281.159 70.0355C280.827 70.1131 280.494 70.1927 280.162 70.2723C279.977 70.317 279.793 70.3616 279.609 70.4072C279.343 70.4713 279.078 70.5373 278.812 70.6043C278.614 70.6538 278.415 70.7033 278.216 70.7548C277.917 70.8305 277.617 70.9072 277.319 70.9858C277.116 71.0372 276.912 71.0906 276.71 71.145C276.609 71.1712 276.507 71.1984 276.406 71.2255C276.186 71.2838 275.966 71.343 275.746 71.4032C275.675 71.4216 275.606 71.4401 275.536 71.4595C275.313 71.5197 275.092 71.5799 274.871 71.641C274.242 71.8158 273.615 71.9924 272.989 72.1739C272.651 72.271 272.314 72.37 271.977 72.469C271.641 72.569 271.304 72.669 270.969 72.7709C270.64 72.8699 270.312 72.9699 269.985 73.0709C269.957 73.0796 269.928 73.0883 269.9 73.0971C269.667 73.1689 269.435 73.2408 269.203 73.3145C269.068 73.3563 268.933 73.398 268.798 73.4417C268.518 73.53 268.237 73.6193 267.958 73.7096C267.625 73.8164 267.292 73.9241 266.961 74.0338C266.628 74.1425 266.297 74.2522 265.965 74.3629C265.749 74.4357 265.533 74.5095 265.317 74.5842C265.041 74.6803 264.765 74.7784 264.491 74.8793C264.349 74.9308 264.208 74.9832 264.067 75.0366C263.888 75.1035 263.709 75.1705 263.532 75.2394C263.417 75.2841 263.301 75.3297 263.185 75.3753C263.082 75.4151 262.98 75.4559 262.877 75.4977C262.767 75.5413 262.658 75.586 262.549 75.6306C262.483 75.6569 262.416 75.685 262.349 75.7132C262.186 75.7801 262.023 75.8481 261.862 75.917C261.844 75.9238 261.824 75.9316 261.806 75.9403C261.664 76.0005 261.522 76.0607 261.382 76.1228C261.295 76.1597 261.21 76.1966 261.125 76.2354C260.987 76.2956 260.848 76.3577 260.71 76.4198C260.701 76.4237 260.691 76.4286 260.68 76.4334C260.498 76.5159 260.315 76.5994 260.133 76.6839C259.971 76.7586 259.81 76.8343 259.649 76.912C259.57 76.9479 259.493 76.9848 259.416 77.0226C259.284 77.0857 259.153 77.1498 259.022 77.2139C257.914 77.7565 256.831 78.3321 255.773 78.9359C255.638 79.0126 255.504 79.0893 255.37 79.1689C255.236 79.2456 255.102 79.3242 254.969 79.4038C254.86 79.4669 254.751 79.5319 254.643 79.597C254.572 79.6387 254.503 79.6805 254.434 79.7232C254.303 79.8008 254.174 79.8804 254.045 79.96C254.028 79.9697 254.011 79.9804 253.995 79.9911C253.821 80.0969 253.649 80.2046 253.476 80.3134C253.469 80.3182 253.463 80.3221 253.457 80.326C253.313 80.4163 253.169 80.5075 253.026 80.6007C252.879 80.6939 252.733 80.789 252.586 80.8851C252.482 80.9521 252.378 81.02 252.274 81.0899C251.083 81.8772 249.922 82.7023 248.787 83.5584C248.427 83.8293 248.071 84.104 247.717 84.3816C247.493 84.734 247.271 85.0873 247.049 85.4407C246.102 86.954 245.176 88.478 244.264 90.0079C243.125 91.9231 242.012 93.848 240.913 95.7729C240.476 96.5388 240.042 97.3037 239.609 98.0696C237.757 101.349 235.941 104.62 234.113 107.844C233.984 108.077 233.852 108.307 233.72 108.538C222.318 128.592 205.798 146.282 186.941 161.61C185.233 162.999 180.017 167.376 173.48 172H203.831C206.279 168.26 208.5 165.134 209.503 163.471C217.807 149.706 223.537 134.53 232.844 121.258C232.933 121.131 233.021 121.005 233.111 120.878C234.879 118.382 236.747 115.98 238.701 113.66C238.726 113.63 238.751 113.601 238.777 113.571C241.734 110.069 244.891 106.754 248.211 103.582C259.518 92.7812 272.712 83.6487 286.331 74.4687C287.553 73.6446 290.681 71.84 294.708 69.4598C294.896 69.3492 295.085 69.2366 295.276 69.124C296.041 68.6706 296.834 68.1989 297.652 67.7106C297.84 67.598 298.029 67.4844 298.22 67.3709C298.419 67.2515 298.62 67.1301 298.822 67.0088C298.621 67.0301 298.421 67.0515 298.22 67.0738ZM373.438 92.0454C373.28 91.8862 373.121 91.728 372.962 91.5697C372.818 91.4261 372.674 91.2824 372.53 91.1397C372.488 91.0989 372.447 91.0582 372.405 91.0174C372.272 90.8854 372.138 90.7534 372.003 90.6223C371.815 90.4369 371.624 90.2515 371.434 90.0671C371.163 89.804 370.889 89.5419 370.614 89.2808C370.477 89.1497 370.34 89.0197 370.201 88.8896C369.967 88.6683 369.731 88.4479 369.494 88.2276C369.388 88.1276 369.28 88.0286 369.172 87.9296C368.598 87.4005 368.017 86.8763 367.425 86.357C367.318 86.2609 367.209 86.1658 367.1 86.0706C366.533 85.5756 365.958 85.0854 365.375 84.601C365.216 84.468 365.056 84.336 364.895 84.2049C364.728 84.0671 364.561 83.9312 364.392 83.7963C364.365 83.773 364.336 83.7497 364.308 83.7273C364.184 83.6274 364.059 83.5274 363.933 83.4284C363.385 82.9916 362.829 82.5596 362.264 82.1344C362.118 82.0238 361.971 81.9131 361.824 81.8053C361.804 81.7888 361.785 81.7743 361.765 81.7607C361.628 81.6588 361.491 81.5578 361.353 81.4569C361.324 81.4345 361.295 81.4132 361.265 81.3928C361.138 81.2996 361.011 81.2074 360.884 81.1152C360.73 81.0045 360.575 80.8938 360.42 80.7841C360.231 80.6502 360.042 80.5172 359.851 80.3842C359.616 80.2211 359.38 80.0581 359.141 79.8969C358.998 79.7989 358.855 79.7028 358.71 79.6067C358.653 79.5678 358.595 79.53 358.537 79.4921C358.42 79.4135 358.302 79.3358 358.184 79.2592C358.104 79.2058 358.023 79.1534 357.941 79.1C357.836 79.031 357.73 78.9631 357.625 78.8961C357.355 78.7214 357.082 78.5496 356.809 78.3787C355.151 77.3449 353.465 76.3849 351.755 75.4977C351.533 75.3821 351.31 75.2676 351.087 75.155C351.046 75.187 351.005 75.2191 350.964 75.2511C342.525 81.8723 334.625 89.308 327.032 97.0135C326.74 97.3086 326.45 97.6037 326.16 97.8997C323.989 100.114 321.844 102.349 319.718 104.591C319.35 104.978 318.983 105.365 318.616 105.754C313.513 111.155 308.515 116.586 303.546 121.871C302.54 122.938 301.538 123.998 300.537 125.052C299.248 126.408 297.961 127.76 296.677 129.108C296.654 129.132 296.631 129.157 296.609 129.18C295.639 130.198 294.67 131.214 293.701 132.227C292.635 133.342 291.569 134.454 290.503 135.562C289.816 136.276 289.129 136.987 288.442 137.697C287.542 138.629 286.638 139.557 285.735 140.483C284.336 141.915 282.933 143.34 281.525 144.757C276.276 150.037 270.944 155.203 265.41 160.211C264.486 161.049 263.554 161.882 262.616 162.71C262.557 162.763 262.498 162.815 262.438 162.868C261.491 163.705 260.536 164.537 259.575 165.364C259.12 165.756 258.663 166.147 258.204 166.536C257.9 166.794 257.596 167.051 257.29 167.309C256.772 167.745 256.252 168.18 255.729 168.614C254.356 169.754 252.968 170.883 251.563 172H281.644C282.529 169.568 283.849 167.255 284.826 165.519C285.12 164.996 285.423 164.48 285.735 163.969C286.574 162.596 287.478 161.263 288.442 159.966C289.754 158.199 291.176 156.501 292.692 154.862C293.004 154.523 293.322 154.187 293.643 153.854C298.425 148.884 304.067 144.465 310.107 140.357C311.213 139.605 312.332 138.864 313.462 138.131C314.076 137.733 314.693 137.337 315.314 136.944C316.838 135.977 318.38 135.024 319.931 134.083C319.966 134.062 320 134.04 320.035 134.02C320.586 133.686 321.136 133.353 321.689 133.022C321.749 132.986 321.809 132.95 321.869 132.914C322.879 132.309 323.894 131.708 324.908 131.109C325.07 131.014 325.231 130.919 325.392 130.824C326.438 130.209 327.482 129.597 328.528 128.987C330.256 127.978 331.981 126.975 333.694 125.972C333.705 125.966 333.715 125.959 333.726 125.952C333.825 125.895 333.924 125.838 334.022 125.781C334.651 125.412 335.279 125.043 335.904 124.674C336.499 124.323 337.09 123.973 337.68 123.623C337.699 123.611 337.717 123.6 337.736 123.59C337.758 123.576 337.779 123.563 337.801 123.551C338.795 122.959 339.781 122.366 340.759 121.771C340.833 121.727 340.905 121.683 340.977 121.638C343.406 120.16 345.778 118.669 348.067 117.151C348.123 117.114 348.179 117.076 348.235 117.039C348.249 117.03 348.265 117.019 348.28 117.009C348.304 116.993 348.329 116.977 348.353 116.962C348.938 116.57 349.522 116.181 350.106 115.789C352.708 114.043 355.297 112.262 357.773 110.425C358.841 109.633 359.889 108.829 360.907 108.013C361.314 107.686 361.716 107.358 362.113 107.028C362.542 106.672 362.964 106.313 363.378 105.952C363.945 105.461 364.497 104.965 365.035 104.464C365.245 104.269 365.453 104.072 365.658 103.875C366.263 103.295 366.85 102.708 367.413 102.113C369.295 100.129 370.929 98.0628 372.221 95.8942C372.233 95.8758 372.243 95.8583 372.254 95.8409C372.274 95.8069 372.294 95.7729 372.313 95.7389C372.93 94.6915 373.465 93.6199 373.911 92.522C373.755 92.3628 373.597 92.2036 373.438 92.0454ZM379.159 172H387.835C390.849 169.158 393.947 166.366 397.13 163.613C397.382 163.395 397.673 163.157 398 162.902V154.019C392.2 160.332 385.873 166.344 379.159 172ZM396.619 114.715C396.434 114.575 396.249 114.432 396.065 114.289C395.843 114.116 395.621 113.944 395.402 113.768C395.249 113.647 395.097 113.525 394.945 113.402C394.785 113.273 394.625 113.143 394.466 113.012C393.599 112.3 392.749 111.572 391.915 110.83C391.808 110.735 391.703 110.641 391.597 110.546C391.444 110.409 391.291 110.271 391.14 110.134C390.985 109.994 390.832 109.854 390.68 109.713C390.506 109.554 390.335 109.395 390.164 109.236C389.863 108.955 389.564 108.675 389.267 108.391C389.099 108.232 388.932 108.072 388.767 107.912C388.553 107.707 388.341 107.501 388.13 107.294C379.027 116.875 371.749 127.719 363.293 137.695C353.027 149.808 340.469 160.03 326.148 168.338C323.969 169.603 321.748 170.824 319.488 172H343.837C344.595 171.031 345.402 170.054 346.262 169.066C346.415 168.889 346.571 168.712 346.728 168.535C356.619 157.369 368.112 148.455 380.144 140.031C386.009 135.924 392.002 131.934 398 127.855V115.739C397.535 115.404 397.074 115.062 396.619 114.715Z" fill="#EEF2F5" fill-opacity="0.5"/>
</svg>
