<svg width="23" height="23" viewBox="0 0 23 23" fill="none" xmlns="http://www.w3.org/2000/svg">
<g id="Group">
<path id="Vector" d="M1.4519 6.25553C2.14605 4.80902 3.12681 3.58643 4.36284 2.56984C6.03775 1.18602 7.95897 0.353044 10.1131 0.0977771C12.6433 -0.202273 15.0214 0.276912 17.2202 1.59355C17.7666 1.92047 18.2771 2.29218 18.7653 2.69523C18.8862 2.79375 18.8728 2.85197 18.7698 2.9505C17.7711 3.94469 16.7724 4.93889 15.7827 5.94205C15.6662 6.05848 15.6035 6.04953 15.4782 5.95548C12.5762 3.72078 8.34411 4.32536 6.18106 7.28108C5.8004 7.80057 5.49139 8.36036 5.27643 8.96942C5.25852 9.02316 5.22269 9.07243 5.19582 9.12617C4.61811 8.68729 4.03592 8.24841 3.46269 7.80505C2.79094 7.29004 2.11918 6.77502 1.4519 6.25553Z" fill="#E94335"/>
<path id="Vector_2" d="M5.1959 13.3268C5.38847 13.7522 5.54969 14.1956 5.79153 14.5942C6.80812 16.2601 8.25911 17.3304 10.1714 17.7111C11.8955 18.0559 13.5525 17.8231 15.0976 16.9587C15.1513 16.9319 15.2051 16.905 15.2543 16.8781C15.2812 16.905 15.3036 16.9363 15.3304 16.9587C16.4859 17.8544 17.6458 18.7501 18.8012 19.6458C18.2459 20.1966 17.6144 20.64 16.9427 21.0251C14.9946 22.1357 12.8853 22.5836 10.664 22.4134C7.89636 22.1984 5.50939 21.1057 3.53891 19.1352C2.67458 18.2709 1.96252 17.2946 1.44751 16.1795C1.9267 15.8123 2.40588 15.4495 2.88507 15.0823C3.65534 14.4956 4.42562 13.9134 5.1959 13.3268Z" fill="#34A853"/>
<path id="Vector_3" d="M18.8059 19.6458C17.6505 18.7501 16.4906 17.8545 15.3352 16.9588C15.3083 16.9364 15.2814 16.905 15.259 16.8782C15.6576 16.5692 16.0651 16.2691 16.3921 15.875C16.9384 15.2212 17.3012 14.4822 17.4893 13.6537C17.5116 13.5507 17.4937 13.5149 17.3907 13.5194C17.337 13.5239 17.2877 13.5194 17.234 13.5194C15.4068 13.5194 13.5752 13.5149 11.748 13.5239C11.5465 13.5239 11.5017 13.4701 11.5062 13.2776C11.5151 11.9788 11.5151 10.6801 11.5062 9.38138C11.5062 9.21568 11.5509 9.1709 11.7166 9.1709C15.0665 9.17538 18.4163 9.17538 21.7706 9.1709C21.9139 9.1709 21.9721 9.20673 22.0079 9.35899C22.2811 10.5905 22.2632 11.8266 22.0975 13.0716C21.9631 14.0658 21.7213 15.0286 21.3496 15.9601C20.7988 17.335 19.9882 18.5352 18.9223 19.5652C18.882 19.5965 18.8417 19.6189 18.8059 19.6458Z" fill="#4285F3"/>
<path id="Vector_4" d="M5.19633 13.3268C4.42605 13.9134 3.65577 14.4956 2.88549 15.0823C2.40631 15.445 1.92712 15.8122 1.44794 16.1795C1.07623 15.4898 0.834401 14.7598 0.637353 14.0075C0.26117 12.552 0.202951 11.0741 0.408956 9.59179C0.570177 8.42742 0.906055 7.30783 1.44794 6.25989C2.11969 6.7749 2.78697 7.29439 3.45872 7.8094C4.03643 8.25276 4.61414 8.69164 5.19185 9.13052C5.09333 9.60971 4.9545 10.0799 4.90972 10.5726C4.8291 11.4682 4.91419 12.3415 5.16946 13.2014C5.18737 13.2372 5.19185 13.282 5.19633 13.3268Z" fill="#FABB06"/>
</g>
</svg>
