<svg width="351" height="172" viewBox="0 0 351 172" fill="none" xmlns="http://www.w3.org/2000/svg">
<path d="M56.19 0.465526C52.4238 0.138397 48.3583 -0.0392467 44.2318 0.00734741C42.5654 0.0257909 40.8889 0.0811225 39.2185 0.178194C38.3338 0.393692 37.465 0.657727 36.6183 0.980974C30.0837 3.47279 28.8537 7.98951 25.6649 13.4575C21.096 21.2902 15.0489 25.3604 5.86201 25.9914C3.90334 26.1263 1.94766 26.1059 0 26.1214V52.7558C5.43364 50.7115 11.5158 49.5942 16.355 45.8609C19.9771 43.0652 21.6315 38.2699 23.7683 34.2123C24.527 32.7728 25.3457 31.4254 26.3345 30.2936C30.414 25.6283 38.0505 25.9273 44.0987 24.347C45.0125 24.1101 45.8882 23.8286 46.7109 23.4821C56.8076 19.2197 62.4714 8.58553 72.1657 3.02141C67.0043 1.7721 61.6497 0.939234 56.19 0.465526ZM99.9604 15.8552C96.1161 18.114 92.6012 20.8019 89.6666 24.148C83.4443 31.2429 82.2893 38.3087 74.5757 42.6226C73.6509 43.1409 72.6321 43.6185 71.4981 44.0524C71.0277 44.232 70.5403 44.4038 70.0299 44.5679C64.341 46.3977 59.4118 47.2111 54.963 48.4828C54.2954 48.674 53.6378 48.8749 52.9913 49.0914C49.4503 50.2766 46.2035 51.9191 43.0948 54.8361C41.5135 56.3193 39.9682 58.1326 38.4379 60.3827C33.2554 68.0028 31.0315 70.4548 23.5201 72.669C23.1478 72.7787 22.7625 72.8884 22.3631 72.9971C10.6671 76.1956 5.87002 86.6142 0 95.637V118.316C7.98983 114.814 19.835 113.071 25.1305 106.446C25.9362 105.437 26.5907 104.316 27.0561 103.059C27.1452 102.818 27.2253 102.58 27.2973 102.344C28.3352 98.9423 27.7197 96.0146 29.223 92.5259C29.4532 91.991 29.7334 91.4426 30.0777 90.8776C30.389 90.367 30.7143 89.8817 31.0525 89.4206C36.7174 81.717 46.1595 80.6424 54.2344 75.9733C55.7967 75.0705 56.9357 74.0523 57.8474 72.9389C60.4897 69.7151 61.2273 65.709 64.8324 61.4563C64.8364 61.4515 64.8404 61.4466 64.8444 61.4418C66.4838 59.513 68.4015 57.9452 70.4302 56.5241C70.5733 56.4232 70.7174 56.3242 70.8626 56.2251C72.3448 55.2088 73.8791 54.2614 75.4024 53.3004C77.7454 51.823 80.0594 50.3125 82.1152 48.4721C88.3435 42.8944 93.0015 35.3112 100.271 30.7352C103.401 28.7647 106.776 27.3125 110.283 26.137C107.224 22.2095 103.758 18.7984 99.9604 15.8552ZM125.893 74.9599C124.789 64.9441 123.5 54.9186 120.382 45.4425C113.357 48.3993 106.812 51.8919 102.448 58.5384C100.662 61.2573 99.1888 64.4529 97.7486 67.7679C93.6771 77.1333 89.8658 87.4442 80.0144 90.5951C79.2678 90.8339 78.5511 91.0329 77.8625 91.2009C76.9998 91.4115 76.1801 91.5726 75.4014 91.6998C75.3294 91.7115 75.2573 91.7231 75.1863 91.7347C67.2565 92.9773 63.4803 90.7922 59.9622 101.721C55.9999 114.029 52.693 121.72 43.7284 131.634C43.252 132.161 42.7706 132.676 42.2851 133.182C40.8329 134.697 39.3436 136.123 37.8263 137.498C36.307 138.877 34.7597 140.203 33.1894 141.519C30.5421 143.736 27.8308 145.922 25.0884 148.263C16.9195 155.235 14.2011 161.394 10.474 171.043C10.3538 171.353 10.2327 171.673 10.1086 172H57.5802C61.8679 168.211 66.4308 164.596 67.2805 158.656C67.6758 155.892 67.7029 153.19 68.0141 150.525C68.2673 148.352 68.7077 146.205 69.6916 144.074C70.0939 143.202 70.5343 142.354 71.0117 141.53C71.0267 141.504 71.0417 141.478 71.0567 141.453C71.1298 141.327 71.2029 141.203 71.2779 141.08C72.1276 139.663 73.0845 138.312 74.1284 137.02C75.0021 135.939 75.9369 134.898 76.9237 133.893C77.3261 133.482 77.7374 133.077 78.1568 132.677C78.9104 131.958 79.6891 131.257 80.4898 130.572C81.3635 129.822 82.2623 129.092 83.1811 128.376C86.2107 126.016 89.4555 123.825 92.7212 121.699C93.8282 120.977 94.9381 120.264 96.0421 119.554C98.24 118.142 100.417 116.745 102.515 115.33C104.652 113.887 105.837 111.523 105.777 109.119C105.776 109.027 105.772 108.935 105.765 108.843C105.71 107.984 105.496 107.126 105.109 106.307C104.638 105.312 104.358 104.284 104.251 103.227C103.378 94.6906 113.74 84.2913 125.893 74.9599ZM133.422 121.295C128.07 128.598 123.231 136.262 119.695 144.821C116.059 153.623 112.551 163.398 107.827 172H119.158C122.005 161.796 135.232 150.772 140.362 145.071C142.145 143.09 143.71 140.996 145.111 138.819C139.436 135.599 135.833 128.863 133.422 121.295ZM263.003 67.0738C262.836 67.0942 262.668 67.1156 262.502 67.1379C262.304 67.1631 262.107 67.1893 261.909 67.2165C261.757 67.2369 261.606 67.2582 261.453 67.2796C261.305 67.3 261.158 67.3214 261.01 67.3427C260.809 67.3718 260.608 67.4019 260.407 67.432C260.323 67.4446 260.239 67.4563 260.156 67.4699C260.073 67.4825 259.99 67.4951 259.906 67.5077C259.888 67.5106 259.869 67.5135 259.851 67.5165C259.601 67.5553 259.35 67.5951 259.099 67.6368C258.89 67.6708 258.681 67.7057 258.472 67.7417C258.384 67.7562 258.296 67.7708 258.209 67.7863C257.99 67.8232 257.77 67.862 257.552 67.9009C257.53 67.9047 257.509 67.9086 257.488 67.9125C257.276 67.9504 257.064 67.9892 256.853 68.028C256.779 68.0416 256.707 68.0552 256.634 68.0688C256.562 68.0824 256.489 68.096 256.417 68.1096C256.239 68.1426 256.061 68.1766 255.883 68.2115C255.881 68.2125 255.878 68.2125 255.876 68.2125C255.67 68.2532 255.464 68.293 255.258 68.3348C255.169 68.3522 255.08 68.3697 254.991 68.3882C254.751 68.4367 254.511 68.4862 254.27 68.5367C254.108 68.5697 253.947 68.6046 253.786 68.6396C253.666 68.6638 253.546 68.6901 253.426 68.7163C253.271 68.7493 253.118 68.7832 252.965 68.8172C252.814 68.8502 252.663 68.8842 252.512 68.9182C252.507 68.9191 252.502 68.9201 252.497 68.9211C252.286 68.9687 252.074 69.0162 251.864 69.0657C251.623 69.121 251.383 69.1773 251.142 69.2346C251.093 69.2463 251.044 69.2579 250.995 69.2696C250.751 69.3278 250.508 69.3861 250.264 69.4462C250.253 69.4492 250.242 69.4511 250.231 69.454C249.99 69.5132 249.747 69.5734 249.506 69.6346C249.287 69.6899 249.069 69.7452 248.851 69.8015C248.552 69.8782 248.255 69.9559 247.957 70.0355C247.664 70.1131 247.37 70.1927 247.077 70.2723C246.914 70.317 246.752 70.3616 246.59 70.4072C246.356 70.4713 246.121 70.5373 245.887 70.6043C245.712 70.6538 245.537 70.7033 245.362 70.7548C245.097 70.8305 244.833 70.9072 244.57 70.9858C244.391 71.0372 244.212 71.0906 244.034 71.145C243.944 71.1712 243.854 71.1984 243.765 71.2255C243.571 71.2838 243.377 71.343 243.183 71.4032C243.121 71.4216 243.06 71.4401 242.998 71.4595C242.802 71.5197 242.606 71.5799 242.411 71.641C241.857 71.8158 241.303 71.9924 240.752 72.1739C240.454 72.271 240.156 72.37 239.859 72.469C239.563 72.569 239.265 72.669 238.97 72.7709C238.68 72.8699 238.391 72.9699 238.103 73.0709C238.077 73.0796 238.052 73.0883 238.027 73.0971C237.822 73.1689 237.617 73.2408 237.413 73.3145C237.294 73.3563 237.175 73.398 237.056 73.4417C236.808 73.53 236.561 73.6193 236.315 73.7096C236.021 73.8164 235.727 73.9241 235.435 74.0338C235.142 74.1425 234.85 74.2522 234.557 74.3629C234.366 74.4357 234.176 74.5095 233.986 74.5842C233.742 74.6803 233.499 74.7784 233.257 74.8793C233.132 74.9308 233.007 74.9832 232.883 75.0366C232.725 75.1035 232.568 75.1705 232.412 75.2394C232.31 75.2841 232.207 75.3297 232.105 75.3753C232.014 75.4151 231.924 75.4559 231.834 75.4977C231.737 75.5413 231.641 75.586 231.545 75.6306C231.486 75.6569 231.427 75.685 231.368 75.7132C231.225 75.7801 231.08 75.8481 230.938 75.917C230.922 75.9238 230.905 75.9316 230.889 75.9403C230.764 76.0005 230.639 76.0607 230.515 76.1228C230.439 76.1597 230.364 76.1966 230.289 76.2354C230.167 76.2956 230.045 76.3577 229.923 76.4198C229.915 76.4237 229.906 76.4286 229.896 76.4334C229.735 76.5159 229.574 76.5994 229.414 76.6839C229.271 76.7586 229.129 76.8343 228.987 76.912C228.918 76.9479 228.85 76.9848 228.782 77.0226C228.665 77.0857 228.549 77.1498 228.434 77.2139C227.456 77.7565 226.502 78.3321 225.569 78.9359C225.45 79.0126 225.332 79.0893 225.213 79.1689C225.095 79.2456 224.977 79.3242 224.859 79.4038C224.763 79.4669 224.667 79.5319 224.572 79.597C224.51 79.6387 224.449 79.6805 224.388 79.7232C224.273 79.8008 224.159 79.8804 224.044 79.96C224.029 79.9697 224.014 79.9804 224 79.9911C223.847 80.0969 223.695 80.2046 223.543 80.3134C223.537 80.3182 223.531 80.3221 223.526 80.326C223.399 80.4163 223.272 80.5075 223.146 80.6007C223.017 80.6939 222.887 80.789 222.758 80.8851C222.666 80.9521 222.574 81.02 222.483 81.0899C221.432 81.8772 220.408 82.7023 219.408 83.5584C219.09 83.8293 218.776 84.104 218.464 84.3816C218.267 84.734 218.07 85.0873 217.875 85.4407C217.039 86.954 216.223 88.478 215.419 90.0079C214.414 91.9231 213.432 93.848 212.464 95.7729C212.078 96.5388 211.695 97.3037 211.314 98.0696C209.68 101.349 208.079 104.62 206.466 107.844C206.352 108.077 206.236 108.307 206.12 108.538C196.065 128.592 181.495 146.282 164.865 161.61C163.359 162.999 158.759 167.376 152.994 172H179.761C181.919 168.26 183.878 165.134 184.763 163.471C192.086 149.706 197.139 134.53 205.348 121.258C205.426 121.131 205.504 121.005 205.583 120.878C207.142 118.382 208.789 115.98 210.513 113.66C210.535 113.63 210.557 113.601 210.58 113.571C213.187 110.069 215.972 106.754 218.9 103.582C228.872 92.7812 240.508 83.6487 252.518 74.4687C253.596 73.6446 256.354 71.84 259.906 69.4598C260.071 69.3492 260.238 69.2366 260.407 69.124C261.081 68.6706 261.781 68.1989 262.502 67.7106C262.668 67.598 262.835 67.4844 263.003 67.3709C263.179 67.2515 263.356 67.1301 263.534 67.0088C263.357 67.0301 263.18 67.0515 263.003 67.0738ZM329.339 92.0454C329.199 91.8862 329.059 91.728 328.919 91.5697C328.792 91.4261 328.665 91.2824 328.538 91.1397C328.501 91.0989 328.465 91.0582 328.428 91.0174C328.311 90.8854 328.193 90.7534 328.073 90.6223C327.907 90.4369 327.739 90.2515 327.571 90.0671C327.332 89.804 327.091 89.5419 326.848 89.2808C326.727 89.1497 326.606 89.0197 326.484 88.8896C326.278 88.6683 326.07 88.4479 325.861 88.2276C325.766 88.1276 325.671 88.0286 325.576 87.9296C325.07 87.4005 324.557 86.8763 324.036 86.357C323.941 86.2609 323.845 86.1658 323.749 86.0706C323.249 85.5756 322.742 85.0854 322.227 84.601C322.087 84.468 321.946 84.336 321.804 84.2049C321.657 84.0671 321.51 83.9312 321.361 83.7963C321.337 83.773 321.312 83.7497 321.287 83.7273C321.178 83.6274 321.067 83.5274 320.956 83.4284C320.473 82.9916 319.982 82.5596 319.484 82.1344C319.355 82.0238 319.226 81.9131 319.096 81.8053C319.079 81.7888 319.062 81.7743 319.044 81.7607C318.924 81.6588 318.802 81.5578 318.68 81.4569C318.655 81.4345 318.629 81.4132 318.603 81.3928C318.491 81.2996 318.379 81.2074 318.267 81.1152C318.131 81.0045 317.995 80.8938 317.858 80.7841C317.692 80.6502 317.524 80.5172 317.356 80.3842C317.149 80.2211 316.941 80.0581 316.73 79.8969C316.604 79.7989 316.477 79.7028 316.349 79.6067C316.299 79.5678 316.248 79.53 316.197 79.4921C316.094 79.4135 315.99 79.3358 315.886 79.2592C315.815 79.2058 315.744 79.1534 315.672 79.1C315.579 79.031 315.486 78.9631 315.393 78.8961C315.154 78.7214 314.914 78.5496 314.673 78.3787C313.211 77.3449 311.724 76.3849 310.216 75.4977C310.02 75.3821 309.824 75.2676 309.627 75.155C309.591 75.187 309.555 75.2191 309.519 75.2511C302.076 81.8723 295.109 89.308 288.413 97.0135C288.155 97.3086 287.899 97.6037 287.644 97.8997C285.729 100.114 283.838 102.349 281.962 104.591C281.638 104.978 281.314 105.365 280.99 105.754C276.49 111.155 272.083 116.586 267.7 121.871C266.813 122.938 265.929 123.998 265.047 125.052C263.91 126.408 262.775 127.76 261.643 129.108C261.622 129.132 261.602 129.157 261.583 129.18C260.727 130.198 259.872 131.214 259.017 132.227C258.078 133.342 257.138 134.454 256.197 135.562C255.591 136.276 254.986 136.987 254.379 137.697C253.586 138.629 252.789 139.557 251.992 140.483C250.758 141.915 249.521 143.34 248.279 144.757C243.65 150.037 238.948 155.203 234.068 160.211C233.252 161.049 232.431 161.882 231.604 162.71C231.552 162.763 231.5 162.815 231.447 162.868C230.611 163.705 229.769 164.537 228.922 165.364C228.52 165.756 228.117 166.147 227.713 166.536C227.444 166.794 227.176 167.051 226.907 167.309C226.45 167.745 225.991 168.18 225.53 168.614C224.319 169.754 223.095 170.883 221.856 172H248.384C249.165 169.568 250.329 167.255 251.191 165.519C251.45 164.996 251.717 164.48 251.992 163.969C252.732 162.596 253.53 161.263 254.379 159.966C255.536 158.199 256.79 156.501 258.128 154.862C258.403 154.523 258.683 154.187 258.966 153.854C263.184 148.884 268.159 144.465 273.487 140.357C274.462 139.605 275.448 138.864 276.445 138.131C276.987 137.733 277.531 137.337 278.079 136.944C279.423 135.977 280.782 135.024 282.15 134.083C282.181 134.062 282.211 134.04 282.242 134.02C282.728 133.686 283.213 133.353 283.7 133.022C283.754 132.986 283.807 132.95 283.86 132.914C284.75 132.309 285.645 131.708 286.54 131.109C286.682 131.014 286.824 130.919 286.966 130.824C287.889 130.209 288.81 129.597 289.732 128.987C291.256 127.978 292.777 126.975 294.288 125.972C294.298 125.966 294.307 125.959 294.317 125.952C294.404 125.895 294.491 125.838 294.577 125.781C295.132 125.412 295.686 125.043 296.237 124.674C296.762 124.323 297.283 123.973 297.804 123.623C297.82 123.611 297.836 123.6 297.853 123.59C297.872 123.576 297.891 123.563 297.91 123.551C298.786 122.959 299.656 122.366 300.519 121.771C300.584 121.727 300.647 121.683 300.711 121.638C302.853 120.16 304.945 118.669 306.963 117.151C307.013 117.114 307.062 117.076 307.111 117.039C307.124 117.03 307.138 117.019 307.152 117.009C307.173 116.993 307.195 116.977 307.216 116.962C307.732 116.57 308.246 116.181 308.762 115.789C311.057 114.043 313.34 112.262 315.524 110.425C316.465 109.633 317.389 108.829 318.287 108.013C318.646 107.686 319.001 107.358 319.351 107.028C319.729 106.672 320.102 106.313 320.467 105.952C320.966 105.461 321.454 104.965 321.928 104.464C322.113 104.269 322.296 104.072 322.478 103.875C323.011 103.295 323.529 102.708 324.025 102.113C325.684 100.129 327.126 98.0628 328.266 95.8942C328.276 95.8758 328.285 95.8583 328.295 95.8409C328.312 95.8069 328.33 95.7729 328.347 95.7389C328.89 94.6915 329.362 93.6199 329.756 92.522C329.618 92.3628 329.479 92.2036 329.339 92.0454ZM334.384 172H342.035C344.694 169.158 347.426 166.366 350.232 163.613C350.455 163.395 350.712 163.157 351 162.902V154.019C345.885 160.332 340.305 166.344 334.384 172ZM349.782 114.715C349.619 114.575 349.456 114.432 349.294 114.289C349.097 114.116 348.902 113.944 348.709 113.768C348.574 113.647 348.44 113.525 348.306 113.402C348.165 113.273 348.023 113.143 347.883 113.012C347.119 112.3 346.369 111.572 345.633 110.83C345.539 110.735 345.446 110.641 345.353 110.546C345.218 110.409 345.083 110.271 344.95 110.134C344.814 109.994 344.679 109.854 344.544 109.713C344.391 109.554 344.24 109.395 344.089 109.236C343.824 108.955 343.561 108.675 343.298 108.391C343.15 108.232 343.003 108.072 342.857 107.912C342.669 107.707 342.482 107.501 342.296 107.294C334.268 116.875 327.849 127.719 320.392 137.695C311.338 149.808 300.263 160.03 287.633 168.338C285.711 169.603 283.753 170.824 281.76 172H303.233C303.902 171.031 304.613 170.054 305.372 169.066C305.507 168.889 305.644 168.712 305.782 168.535C314.506 157.369 324.641 148.455 335.253 140.031C340.425 135.924 345.71 131.934 351 127.855V115.739C350.59 115.404 350.183 115.062 349.782 114.715Z" fill="#EEF2F5" fill-opacity="0.5"/>
</svg>
